<svg width="400" height="83" viewBox="0 0 400 83" fill="none" xmlns="http://www.w3.org/2000/svg">
<path d="M104.429 20.4125H119.195C130.47 20.4125 137.718 27.5569 137.718 38.5286C137.718 49.2452 130.47 57.4102 118.926 57.4102H104.429V20.4125ZM111.678 51.5416H118.658C126.711 51.5416 130.201 45.9282 130.201 38.2735C130.201 31.8946 126.711 25.7708 118.658 25.7708H111.678V51.5416Z" fill="white"/>
<path d="M144.429 18.1161H151.409V24.495H144.429V18.1161ZM144.429 29.8533H151.409V57.155H144.429V29.8533Z" fill="white"/>
<path d="M159.194 36.9976C159.194 34.7012 159.194 32.1496 159.194 29.8532H165.906C165.906 30.6187 166.174 32.1496 166.174 33.4254C167.516 31.129 169.933 29.0878 174.228 29.0878C178.255 29.0878 180.671 31.129 181.745 33.4254C183.355 31.129 186.04 29.0878 190.604 29.0878C195.436 29.0878 199.731 31.8945 199.731 39.0389V56.8998H193.02V39.8043C193.02 36.9976 191.946 34.4461 188.188 34.4461C184.429 34.4461 182.818 36.9976 182.818 41.3353V56.8998H176.107V40.0595C176.107 36.9976 175.302 34.4461 171.543 34.4461C167.785 34.4461 166.174 36.9976 166.174 41.8456V57.155H159.194V36.9976V36.9976Z" fill="white"/>
<path d="M230.336 50.5209C230.336 53.0725 230.604 56.6447 230.604 57.155H223.893C223.625 56.6447 223.625 55.1138 223.356 54.0931C222.282 55.6241 220.135 57.6653 215.034 57.6653C208.054 57.6653 205.101 53.3277 205.101 49.2452C205.101 43.1214 210.202 40.3147 218.792 40.3147C220.403 40.3147 222.282 40.3147 223.088 40.3147V38.2734C223.088 36.2322 222.282 33.9358 217.987 33.9358C214.229 33.9358 213.423 35.7219 212.886 37.7631H206.712C207.249 33.1703 209.933 29.0878 218.524 29.343C226.041 29.343 230.068 32.1497 230.068 38.5286V50.5209H230.336ZM223.356 44.3972C222.551 44.3972 220.94 44.3972 219.598 44.3972C214.497 44.3972 212.349 45.9281 212.349 48.99C212.349 51.2864 213.96 53.0725 216.913 53.0725C222.551 53.0725 223.356 49.2452 223.356 45.1627V44.3972Z" fill="white"/>
<path d="M273.825 38.5286C273.825 48.7349 267.651 57.6654 255.033 57.6654C243.221 57.6654 236.778 49.2452 236.778 38.7838C236.778 28.0672 243.758 19.9022 255.57 19.9022C266.577 19.9022 273.825 27.5569 273.825 38.5286ZM244.295 38.5286C244.295 45.9282 248.053 52.0519 255.302 52.0519C263.356 52.0519 266.309 45.673 266.309 38.7838C266.309 31.3843 262.819 25.5157 255.302 25.5157C247.517 25.5157 244.295 31.1291 244.295 38.5286ZM265.235 52.0519L272.215 64.0443L258.792 55.1138L265.235 52.0519Z" fill="white"/>
<path d="M304.699 49.2452C304.699 51.7968 304.699 55.1138 304.699 57.1551H297.987C297.987 56.3896 297.719 54.8587 297.719 53.5829C296.108 56.3896 293.423 57.6654 289.397 57.6654C283.759 57.6654 279.732 54.6035 279.732 47.4591V29.5982H286.712V46.1833C286.712 49.5004 287.786 52.0519 291.544 52.0519C295.84 52.0519 297.45 50.0107 297.45 43.8869V29.343H304.43V49.2452H304.699Z" fill="white"/>
<path d="M317.854 44.9075C317.854 48.99 320.001 52.5622 324.297 52.5622C328.055 52.5622 329.129 51.0312 329.934 49.2451H336.914C335.84 52.5622 332.619 57.9204 324.028 57.9204C314.632 57.9204 310.605 51.0312 310.605 43.8868C310.605 35.4667 315.169 29.0878 324.297 29.0878C333.961 29.0878 337.183 35.977 337.183 42.6111C337.183 43.6317 337.183 44.142 337.183 44.9075H317.854V44.9075ZM330.203 40.5698C330.203 36.9976 328.324 33.9357 324.297 33.9357C320.001 33.9357 318.391 36.7425 317.854 40.5698H330.203Z" fill="white"/>
<path d="M367.786 49.2452C367.786 51.7968 367.786 55.1138 367.786 57.1551H361.075C361.075 56.3896 360.806 54.8587 360.806 53.5829C359.196 56.3896 356.511 57.6654 352.484 57.6654C346.847 57.6654 342.82 54.6035 342.82 47.4591V29.5982H349.8V46.1833C349.8 49.5004 350.874 52.0519 354.632 52.0519C358.927 52.0519 360.538 50.0107 360.538 43.8869V29.343H367.518V49.2452H367.786Z" fill="white"/>
<path d="M380.671 44.9075C380.671 48.99 382.819 52.5622 387.114 52.5622C390.872 52.5622 391.946 51.0312 392.752 49.2451H399.732C398.658 52.5622 395.436 57.9204 386.846 57.9204C377.45 57.9204 373.423 51.0312 373.423 43.8868C373.423 35.4667 377.987 29.0878 387.114 29.0878C396.779 29.0878 400 35.977 400 42.6111C400 43.6317 400 44.142 400 44.9075H380.671V44.9075ZM393.289 40.5698C393.289 36.9976 391.409 33.9357 387.383 33.9357C383.087 33.9357 381.477 36.7425 380.94 40.5698H393.289Z" fill="white"/>
<path d="M6.44295 11.2269L30.604 41.8456C33.0201 44.9075 37.5839 45.673 41.0738 43.3766C44.2953 41.0801 45.1007 36.7425 42.6846 33.4255L18.5235 4.08247C16.1074 1.0206 9.12752 0.255127 4.56376 0.255127H0C2.41611 2.29638 4.02685 8.16498 6.44295 11.2269Z" fill="#12B0FF"/>
<path d="M4.29482 7.65474L5.6371 9.95115L7.5163 7.14443L2.68408 4.33771L4.29482 7.65474Z" fill="#863CFE"/>
<path d="M69.7985 11.9924C62.0132 4.59282 51.275 0 39.4629 0H11.8119C8.05351 0 4.83203 3.06188 4.83203 6.63407C4.83203 10.7166 8.32196 14.0336 12.6173 14.0336H38.6575C55.5703 14.0336 68.9931 27.0466 67.9193 43.1214C66.8455 57.155 54.4965 68.3819 39.4629 68.3819H26.3085C22.5502 68.3819 19.5971 71.1886 19.5971 74.7608C19.5971 78.8433 23.0871 82.1604 27.3824 82.1604H38.1206C62.5502 82.1604 82.9528 63.2788 82.4159 40.0596C82.4159 29.0878 77.5837 19.3919 69.7985 11.9924Z" fill="#863CFE"/>
<path d="M6.71141 11.482L0 0H12.0805L6.71141 11.482Z" fill="#863CFE"/>
</svg>