<svg xmlns="http://www.w3.org/2000/svg" viewBox="0 0 300 48"><title>moviesdb</title><rect x="175.05" y="0.01" width="124.95" height="47.97" rx="7.61" style="fill:#fdae00"/><path d="M31.05,36.83H27.9V18.73q0-2.14.27-5.25h-.08a16,16,0,0,1-.81,2.61L18.06,36.83H16.52L7.32,16.24a16.71,16.71,0,0,1-.81-2.76H6.43c.11,1.08.15,2.84.15,5.29V36.83h-3v-27H7.71L16,28.66a24.78,24.78,0,0,1,1.25,3.24h.11c.54-1.48,1-2.58,1.3-3.31L27.09,9.85h4Z"/><path d="M45.78,37.28A8.93,8.93,0,0,1,39,34.58a10,10,0,0,1-2.55-7.16c0-3.24.88-5.76,2.65-7.58a9.54,9.54,0,0,1,7.17-2.73A8.64,8.64,0,0,1,53,19.76a10.53,10.53,0,0,1,2.42,7.36,10.32,10.32,0,0,1-2.61,7.38A9.11,9.11,0,0,1,45.78,37.28ZM46,19.71a5.87,5.87,0,0,0-4.71,2,8.34,8.34,0,0,0-1.73,5.58,7.85,7.85,0,0,0,1.75,5.4,5.94,5.94,0,0,0,4.69,2,5.66,5.66,0,0,0,4.6-1.93,8.45,8.45,0,0,0,1.6-5.52,8.58,8.58,0,0,0-1.6-5.57A5.64,5.64,0,0,0,46,19.71Z"/><path d="M75.45,17.56,67.78,36.83h-3l-7.3-19.27h3.38l4.89,14a12.44,12.44,0,0,1,.68,2.69h.08a12.06,12.06,0,0,1,.6-2.61L72.2,17.56Z"/><path d="M80.34,12.67a2,2,0,0,1-1.41-.57,1.88,1.88,0,0,1-.58-1.43,2,2,0,0,1,2-2,2,2,0,0,1,1.44.58,2,2,0,0,1,0,2.85A2,2,0,0,1,80.34,12.67Zm1.51,24.16H78.76V17.56h3.09Z"/><path d="M103.58,28H90a7.2,7.2,0,0,0,1.73,5,5.94,5.94,0,0,0,4.55,1.75,9.48,9.48,0,0,0,6-2.14v2.9a11.21,11.21,0,0,1-6.72,1.84,8.16,8.16,0,0,1-6.42-2.62c-1.55-1.75-2.33-4.22-2.33-7.39a10.54,10.54,0,0,1,2.55-7.33,8.17,8.17,0,0,1,6.33-2.83,7.25,7.25,0,0,1,5.85,2.45,10.18,10.18,0,0,1,2.07,6.79Zm-3.16-2.62a6.25,6.25,0,0,0-1.29-4.16,4.37,4.37,0,0,0-3.52-1.48,5,5,0,0,0-3.71,1.56A7,7,0,0,0,90,25.35Z"/><path d="M107.08,36.13V32.82a9.14,9.14,0,0,0,5.55,1.86q4.07,0,4.07-2.71a2.33,2.33,0,0,0-.35-1.3,3.39,3.39,0,0,0-.94-1A7.27,7.27,0,0,0,114,29l-1.73-.68a20.88,20.88,0,0,1-2.24-1,6.37,6.37,0,0,1-1.62-1.17,4.36,4.36,0,0,1-1-1.47,5.22,5.22,0,0,1-.33-1.94,4.66,4.66,0,0,1,.62-2.4,5.54,5.54,0,0,1,1.66-1.75,7.7,7.7,0,0,1,2.36-1.06,10.4,10.4,0,0,1,2.74-.36A11.14,11.14,0,0,1,119,18V21.1a8.67,8.67,0,0,0-4.89-1.39,5.75,5.75,0,0,0-1.56.19,4,4,0,0,0-1.19.56,2.62,2.62,0,0,0-.78.85,2.31,2.31,0,0,0-.27,1.11,2.67,2.67,0,0,0,.27,1.26,2.83,2.83,0,0,0,.8.9,6.4,6.4,0,0,0,1.28.71c.5.22,1.08.45,1.72.7a24,24,0,0,1,2.29,1,7.56,7.56,0,0,1,1.73,1.16,4.54,4.54,0,0,1,1.1,1.5,5.3,5.3,0,0,1-.24,4.5,5.42,5.42,0,0,1-1.69,1.75,7.66,7.66,0,0,1-2.42,1,11.83,11.83,0,0,1-2.88.34A10.91,10.91,0,0,1,107.08,36.13Z"/><path d="M125,36.83v-27h7.46q14.25,0,14.26,13.15a13.27,13.27,0,0,1-4,10q-4,3.8-10.6,3.79Zm3.17-24.12V34h4q5.31,0,8.26-2.84c2-1.9,3-4.58,3-8.06q0-10.36-11-10.36Z"/><path d="M152,36.83v-27h7.68a8.41,8.41,0,0,1,5.55,1.71A5.53,5.53,0,0,1,167.31,16a6.55,6.55,0,0,1-1.24,4,6.73,6.73,0,0,1-3.42,2.41v.07A6.88,6.88,0,0,1,167,24.55a6.35,6.35,0,0,1,1.64,4.53,7.07,7.07,0,0,1-2.48,5.6,9.27,9.27,0,0,1-6.27,2.15Zm3.17-24.12v8.71h3.23a6.21,6.21,0,0,0,4.09-1.25A4.37,4.37,0,0,0,164,16.64q0-3.93-5.17-3.93Zm0,11.55V34h4.29a6.4,6.4,0,0,0,4.31-1.32A4.49,4.49,0,0,0,165.34,29q0-4.78-6.51-4.78Z"/><path d="M199.14,37h-2.93V12h2.93Z"/><path d="M231.2,37h-2.91V20.23q0-2,.24-4.86h-.07a15.3,15.3,0,0,1-.75,2.42L219.17,37h-1.43l-8.52-19.07a13.73,13.73,0,0,1-.75-2.56h-.07c.09,1,.14,2.63.14,4.9V37h-2.83V12h3.87l7.67,17.43a20.61,20.61,0,0,1,1.15,3h.11c.5-1.37.9-2.4,1.2-3.07L227.54,12h3.66Z"/><path d="M237.77,37V12h6.9q13.22,0,13.22,12.18a12.3,12.3,0,0,1-3.67,9.3Q250.55,37,244.39,37Zm2.93-22.34V34.35h3.73c3.28,0,5.83-.87,7.65-2.63s2.74-4.24,2.74-7.46q0-9.6-10.22-9.6Z"/><path d="M265.35,34.42h-.07V37h-2.86V10.58h2.86V22.29h.07a6.75,6.75,0,0,1,6.17-3.55,6.51,6.51,0,0,1,5.37,2.39,9.89,9.89,0,0,1,1.95,6.43,11.09,11.09,0,0,1-2.18,7.17,7.26,7.26,0,0,1-6,2.69A5.86,5.86,0,0,1,265.35,34.42Zm-.07-7.2v2.5a5.32,5.32,0,0,0,1.43,3.75,5.13,5.13,0,0,0,7.73-.44,9.15,9.15,0,0,0,1.47-5.53,7.2,7.2,0,0,0-1.38-4.67,4.55,4.55,0,0,0-3.73-1.69,5.06,5.06,0,0,0-4,1.74A6.34,6.34,0,0,0,265.28,27.22Z"/></svg>