<svg width="300" height="83" xmlns="http://www.w3.org/2000/svg" viewBox="0 0 690 230"><defs><style>.cls-1{fill:#f8ef0f;}.cls-2{fill:#020202;}</style></defs><title>logo-mr-diode</title><ellipse class="cls-1" cx="293.68" cy="115" rx="115.98" ry="112.09"/><path class="cls-1" d="M312,160c11.35,0,22.38-.08,33.42,0,25.89.22,46.22-19.24,47-45.06.68-23.16-16.82-44-39.8-46.19-12.05-1.13-24.26-.5-36.4-.66-1.39,0-2.78,0-4.24,0-.09-1.76-.16-3-.23-4.28H298.65V164.35h13.09C311.84,162.92,311.92,161.72,312,160Z"/><path class="cls-1" d="M193.59,141.61a17.24,17.24,0,0,0,3.64.73c9.24.07,18.48,0,27.72,0h13c.18,1.73.32,3,.45,4.3h52.66V123.94h-52.7c-.14,1.35-.26,2.51-.42,4.15H193.59Z"/><path class="cls-1" d="M291.12,79.49H238.37l-.53,4h-43.7V98H238l.46,4.18h52.71Z"/><path class="cls-2" d="M53.25,151.31H39.34Q33,127.79,26.71,104.15l-.49-.05c-.75,16.07-1.5,32.15-2.26,48.39H7.57c1.54-24.33,3.07-48.52,4.6-72.76h23c4.12,15,8.25,30,12.45,45.28q6.85-22.82,13.59-45.25H83.76c1.32,24.21,2.64,48.3,4,72.65H70.43c-.59-16.65-1.17-33.21-1.8-51Z"/><path class="cls-2" d="M546.25,153V81.18c14.39-1.62,28.74-3,43,.45,17.09,4.16,26.24,15.32,26.87,32.14.68,17.92-8.43,31.44-24.83,36.84-11.64,3.84-23.63,3.9-35.67,3.17C552.58,153.59,549.58,153.3,546.25,153Zm19-13.47c11.28,2.24,22.62-1.94,27.26-9.87,5-8.52,4.32-22.21-1.38-29-5.13-6.09-18.2-9.23-25.88-6.18Z"/><path class="cls-2" d="M493.65,79.63c-23.14-.06-39,15.29-39,37.82-.05,21.51,15,36.58,36.7,36.65,23.93.08,39.49-14.68,39.56-37.52C530.93,94.68,515.84,79.69,493.65,79.63Zm-.92,61c-10.4,0-18.83-10.63-18.83-23.76s8.43-23.75,18.83-23.75,18.85,10.63,18.85,23.75S503.14,140.62,492.73,140.62Z"/><path class="cls-2" d="M678.92,122.7H650.79v16.72h31.64v12.94H633.27V81.31h47.36V94.18H650.78v15.31h28.14Z"/><path class="cls-2" d="M420.19,80.49h18.36v72.62H420.19Z"/><path class="cls-2" d="M103.39,152.4c0-17.05,0-33.8,0-50.55a8.42,8.42,0,0,1,.31-1.57h14.77c.21,2.17.43,4.41.72,7.3,4.44-6.36,10-9.24,17.38-8v16.53c-1.39-.16-2.46-.31-3.53-.4-7.25-.55-11.67,3.37-11.74,10.6-.08,8.6,0,17.2,0,26.05Z"/><path class="cls-2" d="M160.71,142.9c0,6-4.29,10.41-10.16,10.47A10.1,10.1,0,0,1,140.27,143c-.05-6.12,4.48-10.78,10.4-10.7S160.74,136.81,160.71,142.9Z"/><path class="cls-2" d="M352.64,68.76c-12.05-1.14-24.26-.51-36.4-.68-1.39,0-2.78,0-4.24,0-.09-1.76-.15-3-.23-4.28H298.65V164.35h13.08c.11-1.43.19-2.62.31-4.37,11.34,0,22.38-.08,33.42,0,25.89.21,46.21-19.24,47-45.06C393.13,91.78,375.62,70.92,352.64,68.76Zm-9.74,70.09c-16,0-29-12.07-29-27s13-27,29-27S372,97,372,111.89,359,138.85,342.9,138.85Z"/><path class="cls-2" d="M291.05,123.93v22.75H238.39c-.13-1.29-.27-2.57-.45-4.31H193.58V128.09h44.35c.16-1.64.28-2.8.41-4.16Z"/><path class="cls-2" d="M291.12,79.49v22.7H238.41L238,98H194.14V83.44h43.7l.53-4Z"/></svg>