<svg id="b5972251-0fe1-4f92-8c2a-aae002c27ed1" data-name="Layer 1" xmlns="http://www.w3.org/2000/svg" viewBox="0 0 300 83"><defs><style>.a770364a-e6bc-435e-890e-0de450a86879{fill:#f2f2f2;}.beb5476b-2be3-46f3-b160-7ddb9bf2546d{fill:#056426;}.e10a9a29-05d9-47e9-9f27-f014d4051a6d{fill:#a3d922;}</style></defs><title>smart-green</title><path class="a770364a-e6bc-435e-890e-0de450a86879" d="M38.74,61.64a13.76,13.76,0,0,1-2.22,7.74,14.5,14.5,0,0,1-6.38,5.27,23.69,23.69,0,0,1-9.79,1.87,40.16,40.16,0,0,1-7.85-.65,29.15,29.15,0,0,1-6.61-2.3V62.28a37.29,37.29,0,0,0,7.54,2.9,27.78,27.78,0,0,0,7.18,1,7,7,0,0,0,4.14-1,3,3,0,0,0,1.31-2.52A2.82,2.82,0,0,0,25.54,61a6.35,6.35,0,0,0-1.71-1.46q-1.17-.73-6.23-3a30.17,30.17,0,0,1-6.89-4A12.57,12.57,0,0,1,7.31,48a15.05,15.05,0,0,1-1.1-6,12,12,0,0,1,4.71-10.11q4.72-3.62,13-3.62a36.32,36.32,0,0,1,14.86,3.37l-3.89,9.78q-6.57-3-11.35-3a5.86,5.86,0,0,0-3.59.87,2.62,2.62,0,0,0-1.13,2.15,3.11,3.11,0,0,0,1.43,2.47,54.18,54.18,0,0,0,7.75,4q6.06,2.73,8.42,5.85A12.74,12.74,0,0,1,38.74,61.64Z"/><path class="a770364a-e6bc-435e-890e-0de450a86879" d="M70.55,75.88v-12a7.27,7.27,0,0,0-.61-3.35A2.07,2.07,0,0,0,68,59.45,2.72,2.72,0,0,0,65.44,61a10.28,10.28,0,0,0-.81,4.68V75.88H57v-12a7.46,7.46,0,0,0-.58-3.35,2,2,0,0,0-1.88-1.12,2.72,2.72,0,0,0-2.6,1.6,12,12,0,0,0-.82,5.2v9.63H43.54v-22h5.73l.95,2.72h.44a5.7,5.7,0,0,1,2.54-2.31,8.64,8.64,0,0,1,3.78-.8q4.76,0,6.67,2.9h.61a6.16,6.16,0,0,1,2.59-2.13,8.66,8.66,0,0,1,3.66-.77q3.9,0,5.77,2c1.24,1.34,1.86,3.36,1.86,6.08V75.88Z"/><path class="a770364a-e6bc-435e-890e-0de450a86879" d="M97.65,75.88,96.2,73H96a8.64,8.64,0,0,1-3.12,2.6,10.28,10.28,0,0,1-4.12.7,6.46,6.46,0,0,1-4.89-1.86,7.29,7.29,0,0,1-1.79-5.25,6,6,0,0,1,2.45-5.23A13.3,13.3,0,0,1,91.65,62l3.67-.12v-.31a2.38,2.38,0,0,0-2.67-2.72,16.14,16.14,0,0,0-6.12,1.63l-2.2-5a21.13,21.13,0,0,1,9.71-2,9.43,9.43,0,0,1,6.56,2.1,7.52,7.52,0,0,1,2.32,5.86V75.88Zm-5.63-5A3.43,3.43,0,0,0,94.38,70a2.9,2.9,0,0,0,1-2.28v-1.7l-1.74.07q-3.75.14-3.75,2.76C89.87,70.24,90.59,70.91,92,70.91Z"/><path class="a770364a-e6bc-435e-890e-0de450a86879" d="M121.36,53.49a10.48,10.48,0,0,1,1.89.16l.42.08L123,60.89a11.63,11.63,0,0,0-2.59-.23,5,5,0,0,0-3.61,1.13,4.47,4.47,0,0,0-1.13,3.28V75.88h-7.59v-22h5.65l1.19,3.52h.37a7.5,7.5,0,0,1,2.65-2.83A6.31,6.31,0,0,1,121.36,53.49Z"/><path class="a770364a-e6bc-435e-890e-0de450a86879" d="M137.52,70.27a11.16,11.16,0,0,0,3.67-.76v5.54a15.14,15.14,0,0,1-2.92.94,17.22,17.22,0,0,1-3.26.28c-2.55,0-4.38-.63-5.51-1.87s-1.69-3.17-1.69-5.76V59.57h-2.66V56.48l3.38-2.39,2-4.62h5v4.41h5.4v5.69h-5.4v8.56C135.46,69.56,136.15,70.27,137.52,70.27Z"/><path class="a770364a-e6bc-435e-890e-0de450a86879" d="M177.7,47.2h21.14V73.6a58,58,0,0,1-18.93,3q-11.32,0-17.5-6.57t-6.18-18.72q0-11.86,6.76-18.46t19-6.6a41.92,41.92,0,0,1,8.72.87,36.52,36.52,0,0,1,7.16,2.21l-4.19,10.38A25.92,25.92,0,0,0,182,37.05q-5.79,0-9,3.77T169.9,51.59q0,6.87,2.86,10.47t8.26,3.6a24.33,24.33,0,0,0,5.43-.57V57.42H177.7Z"/><path class="a770364a-e6bc-435e-890e-0de450a86879" d="M219.44,53.49a10.36,10.36,0,0,1,1.88.16l.43.08-.68,7.16a11.57,11.57,0,0,0-2.59-.23,5,5,0,0,0-3.61,1.13,4.47,4.47,0,0,0-1.12,3.28V75.88h-7.6v-22h5.65L213,57.4h.37A7.58,7.58,0,0,1,216,54.57,6.32,6.32,0,0,1,219.44,53.49Z"/><path class="a770364a-e6bc-435e-890e-0de450a86879" d="M235.44,76.27c-3.67,0-6.51-1-8.54-2.92s-3-4.72-3-8.32.94-6.57,2.82-8.56,4.56-3,8-3c3.31,0,5.87.87,7.68,2.59s2.71,4.22,2.71,7.47v3.38H231.53a3.78,3.78,0,0,0,1.35,2.89,5.3,5.3,0,0,0,3.47,1.05,16.31,16.31,0,0,0,3.68-.38,18,18,0,0,0,3.64-1.29v5.46A13.22,13.22,0,0,1,240,75.92,25.78,25.78,0,0,1,235.44,76.27ZM235,58.66a3.16,3.16,0,0,0-2.24.84,3.93,3.93,0,0,0-1.06,2.65h6.52a3.72,3.72,0,0,0-.9-2.54A3,3,0,0,0,235,58.66Z"/><path class="a770364a-e6bc-435e-890e-0de450a86879" d="M260,76.27c-3.67,0-6.51-1-8.54-2.92s-3-4.72-3-8.32.93-6.57,2.81-8.56,4.56-3,8-3c3.31,0,5.87.87,7.68,2.59s2.71,4.22,2.71,7.47v3.38H256.12a3.77,3.77,0,0,0,1.34,2.89,5.3,5.3,0,0,0,3.47,1.05,16.31,16.31,0,0,0,3.68-.38,18,18,0,0,0,3.64-1.29v5.46a13.22,13.22,0,0,1-3.69,1.26A25.78,25.78,0,0,1,260,76.27Zm-.45-17.61a3.16,3.16,0,0,0-2.24.84,4,4,0,0,0-1.06,2.65h6.52a3.72,3.72,0,0,0-.9-2.54A3,3,0,0,0,259.57,58.66Z"/><path class="a770364a-e6bc-435e-890e-0de450a86879" d="M287.86,75.88v-12a6.89,6.89,0,0,0-.63-3.31,2.17,2.17,0,0,0-2-1.12A2.92,2.92,0,0,0,282.43,61a11.57,11.57,0,0,0-.86,5.26v9.63H274v-22h5.73l1,2.72h.45a6,6,0,0,1,2.68-2.33,9.52,9.52,0,0,1,4-.78,7.52,7.52,0,0,1,5.68,2.12,8.28,8.28,0,0,1,2,6V75.88Z"/><path class="beb5476b-2be3-46f3-b160-7ddb9bf2546d" d="M129.14,12.06c.28-.24,1.11.32,1.46.56a57.85,57.85,0,0,1,5.3,4c.78.67,1.53,1.37,2.27,2.07a28.53,28.53,0,0,1,3.36,3.84c.14.2.28.39.41.59a.34.34,0,0,1-.16.56c-.82.36-1.65.7-2.47,1.08a24.68,24.68,0,0,0-5.11,3,16.22,16.22,0,0,0-3.51,3.65,10,10,0,0,0-1.17,2.25,1,1,0,0,1-.1.21h0a.8.8,0,0,1,0-.15,12.73,12.73,0,0,1,.18-2.47,17.93,17.93,0,0,1,1.53-4.64c.39-.8.82-1.57,1.23-2.35l.08-.16h0a2.85,2.85,0,0,0-.23.26,34.12,34.12,0,0,0-2.81,4.13,17.9,17.9,0,0,0-2,5,13.82,13.82,0,0,0-.3,2.4,12.26,12.26,0,0,0,1.68,6.48c.19.33.42.66.61,1a3.9,3.9,0,0,1,.33.72c.26.77.49,1.54.74,2.32a.43.43,0,0,1,0,.05c0,.09,0,.18,0,.27a.77.77,0,0,1-.27,0,16.86,16.86,0,0,1-4-3.21,13.27,13.27,0,0,1-3.33-6.24,11.83,11.83,0,0,1-.25-3.19,18.13,18.13,0,0,1,.79-4.19,52.83,52.83,0,0,1,2.27-6c.86-2,1.73-4,2.56-6.07a11.83,11.83,0,0,0,1-3.53,5.18,5.18,0,0,0-.08-1.47C129.05,12.34,129,12.15,129.14,12.06Z"/><path class="e10a9a29-05d9-47e9-9f27-f014d4051a6d" d="M148.24,29.09l-1.2.16a32.17,32.17,0,0,0-4.24.86,17.84,17.84,0,0,0-5.16,2.3,12.16,12.16,0,0,0-5,7A18.38,18.38,0,0,0,132,43a27.3,27.3,0,0,0,0,3.73V47c0,.13-.09.17-.19.12a.59.59,0,0,1-.23-.24c-.41-1.4-1-2.77-1.25-4.2A17,17,0,0,1,130,38.6a13.56,13.56,0,0,1,1.68-6.32A12.63,12.63,0,0,1,135.78,28a27.74,27.74,0,0,1,4.81-2.56c2-.86,4.11-1.68,6.17-2.5a49.31,49.31,0,0,0,4.64-2.07,10.31,10.31,0,0,0,2.78-2,.44.44,0,0,1,.45-.18c.19.06.23.24.26.41.2,1.11.41,2.22.58,3.35s.32,2.38.44,3.58c.09,1,.12,2,.17,3.05a28.17,28.17,0,0,1-.1,3.56,21.54,21.54,0,0,1-1.84,7.4,14,14,0,0,1-7.3,7.09,20.62,20.62,0,0,1-5,1.45,28.73,28.73,0,0,1-4.34.33,1.29,1.29,0,0,1-1.4-1,11.68,11.68,0,0,1-.69-4.9,14,14,0,0,1,3.8-8.68,16.83,16.83,0,0,1,6.58-4.34c.73-.28,1.5-.49,2.25-.73l.25-.07Z"/><path d="M132.35,24.08h0Z"/></svg>